<?xml version="1.0" encoding="UTF-8"?>
<svg id="Layer_1" xmlns="http://www.w3.org/2000/svg" version="1.1" viewBox="0 0 407.97 59.61">
  <!-- Generator: Adobe Illustrator 29.5.0, SVG Export Plug-In . SVG Version: 2.1.0 Build 137)  -->
  <defs>
    <style>
      .st0 {
        fill: #034693;
      }

      .st1 {
        fill: #034ea1;
      }
    </style>
  </defs>
  <path class="st1" d="M79.82,38.78v-3.24l-.15-.07c-.23-.11-.31-.19-.33-.22.43-1.08.48-1.46.48-1.65,0-1.53-.08-2.55-.24-3.09.25-.33.37-.66.37-1,0-.28-.08-.5-.24-.64l-.08-.07h-.1c-.13.02-.27.02-.37-.03.09-.36.06-.68-.07-.94l-.06-.12-.13-.02c-.37-.06-.87.27-1.62,1.13-.71.8-1.04,1.39-1.04,1.83,0,.15.07.31.21.51.02.03.04.06.05.08-.34.27-.51.58-.51.91,0,.11.03.25.07.41-.42.67-.83,1.52-1.21,2.5-.59,1.51-1.19,3.1-1.79,4.7-.75,1.77-1.58,3.13-2.45,4.06-.56-.87-1.05-1.83-1.46-2.86-.21-.52-.61-.96-1.2-1.32.04-.14.06-.3.06-.47,0-.38-.11-.78-.34-1.19-.19-.34-.4-.59-.64-.74v-.14c0-.17,0-.34,0-.49v-.26s-.26,0-.26,0c-.13,0-.25-.05-.37-.17.02-.02.04-.04.07-.06.18-.17.27-.33.27-.5,0-.1,0-.27-.75-1.73-.55-1.07-.84-1.47-1-1.66,0-.77-.42-2.29-1.28-4.63l-.06-.17h-.74l-.07.05c-.38.28-.78.57-1.19.86-.66.49-.79.72-.79.93,0,.04,0,.09.32,1.94.21,1.21.26,1.8.26,2.08l-.27.11v6.14c0,.15.04.32.12.49.04.08.07.15.09.2-.16.48-.29,1.32-.39,2.56-.06.7-.14,2.05-.22,4.1v.27s.69,0,.69,0l1.5-1.23c.16-.15.25-.4.25-.78,0-.18-.07-.4-.21-.67-.12-.23-.15-.3-.15-.29,0-.03.02-.13.15-.36.14-.25.22-.51.22-.76,0-.16-.01-.33-.04-.52.17-1.84.16-3.92-.03-6.17,0-.06,0-.29.09-1.1l.12-1.32c.08-.07.15-.13.22-.19.11.13.24.35.37.75.19.57.51,1.03.96,1.38,1.03,2.55,1.89,4.54,2.55,5.89.38,1,.75,2,1.13,3,.9,2.27,1.2,2.45,1.47,2.45.5,0,.91-.42,1.28-1.3.14-.39.29-.78.45-1.16.5-.5,1.47-2.21,2.94-5.22,1.34-2.76,2.28-4.68,2.78-5.65.27,1.2.4,2.34.4,3.39l.02,3.79s0,.16.15,1.28c.12.91.15,1.16.15,1.21,0,.77-.14,1.9-.41,3.36l-.06.31h.77c.89-.31,1.46-.7,1.75-1.22.15-.27.22-.7.22-1.32,0-.09-.04-.52-.32-3.02-.27-2.4-.31-2.86-.31-2.92"/>
  <path class="st1" d="M94.12,44.03c0-.11.02-.46.07-1.06.05-.6.07-1.08.07-1.43,0-.46-.04-1.04-.3-1.32.11-.27.16-.61.16-1.03,0-.7-.14-1.55-.42-2.52-.24-.86-.48-1.45-.73-1.82l-.2-.29-.22.27c-.11.14-.18.14-.21.14-.05,0-.09,0-.1-.02,0,0-.02-.04-.02-.1.16-.18.22-.3.22-.41v-.18l-.18-.06c-1.4-.47-2.4-.7-3.07-.7-.92,0-2.11.24-3.53.73-1.49.51-2.32.98-2.6,1.48l-.11.19.17.14c.7.6,1.26.89,1.7.89h.08l.07-.05c.94-.67,1.9-1.36,2.85-2.07,0,0,0,0,0,0,.15.28.37.32.48.32.11,0,.23-.02.37-.07.08-.03.15-.04.2-.04.62,0,1.13.11,1.5.32.44.46.59.71.64.85.04.1.13.18.49.4.12.06.15.11.15.1.12.55.19.94.22,1.17.02.16,0,.24,0,.26-.04.12-.06.24-.06.35,0,.28-.1.28-.21.28-1.14,0-2.82.37-5.01,1.1-3.2,1.06-4.83,2.48-4.83,4.23,0,1.12.61,2,1.8,2.61.81.43,1.63.64,2.45.64.06,0,.19,0,.65-.05.12-.01.5-.05.6-.05.23,0,.95-.14,4.53-1.27,0,.03,0,.07-.02.12-.09.61-.08.81-.06.93l.04.24.24-.03c.16-.02.46-.09,1.31-.54.87-.42,1.28-.81,1.28-1.22,0-.1-.03-.27-.26-.84-.2-.5-.22-.61-.22-.62M90.49,44.94c-1.2.68-1.79.82-2.07.82-.27,0-.58.03-.96.1-.47.09-.55.1-.55.1-.05,0-.39-.05-1.97-1.08l-.18-.11-.06.06c.07-.2.08-.28.08-.34,0-.09-.02-.25-.17-.85-.09-.4-.17-.69-.22-.87,1.83-1.63,3.53-2.45,5.06-2.45.32.07,1,.15,2.39.31.21,1.26.31,2.12.31,2.56,0,.55-.56,1.14-1.66,1.75"/>
  <path class="st1" d="M109.8,42.99c-.29-2.27-.44-4.72-.45-7.26.15-.09.23-.25.23-.43v-3.17c0-.17-.1-.35-.34-.61-.15-.16-.19-.23-.2-.24,0-.02.04-.09.14-.24.12-.18.18-.21.16-.21l.15-.06v-.17c.04-.25.07-.74.11-1.47.05-.7.06-1.02.06-1.11,0-.16-.07-.38-.24-.73-.17-.36-.18-.46-.18-.47,0-.02,0-.04.03-.06.05-.06.1-.1.15-.13l.1-.07v-.13c.23-3.21.34-5.08.34-5.72,0-.41-.11-.73-.32-.96l-.12-.13-1.49.54c-.98.41-1.38.72-1.38,1.06,0,.04,0,.06.21,1.13.13.67.2,1.21.2,1.6v.2l.2.05c.28.07.39.15.43.2-.26,1.57-.39,2.51-.39,2.89,0,.9.18,1.74.53,2.5-.02,0-.03,0-.05,0h-.26v4.34c.04.16.04.28.03.36h-.15c-.06-.03-.19-.12-.51-.35-.42-.3-.91-.44-1.46-.44-.13,0-.31.04-.46.23-.31-.31-.56-.45-.79-.45-.41,0-1.14.21-2.22.64l-.06.02-.04.05c-.28.32-.49.57-.63.75-.22-.15-.46-.22-.74-.22-.59,0-1.13.47-1.67,1.43-.32.57-.53,1.05-.64,1.44l-.32.07c-.26.06-.44.18-.53.35-.41.63-.74,1.42-1,2.32-.21.74-.32,1.28-.32,1.68,0,.75.33,1.78,1,3.15.12.27.36.52.68.75.51.36.86.44,1.07.26.03.04.08.09.14.18.22.32.39.46.57.46.15,0,.28-.07.37-.19.05.06.14.17.27.37l.05.07.09.03c.3.1.89.14,1.78.14,1.31,0,2.48-.1,3.48-.31.71-.16,1.32-.38,1.82-.64.15-.07.28-.14.38-.19,0,0,0,0,0,.02.04.21.09.41.13.6l.05.2h.84v-.26s0,0,0,0h0l.07.19.02.05s.24-.07,1.38-.32l.2-.05v-1.06s0-.13-.22-1.17c-.15-.67-.24-1.11-.28-1.32M107.22,42.21c.1,1.37.06,1.9,0,2.1-.12.43-.6.77-1.42,1.02-.66.2-1.35.3-2.05.3-1.43,0-2.7-.44-3.77-1.31-1.19-.98-1.78-2.26-1.78-3.93,0-.29.2-.89,1.13-2.15.93-1.25,1.45-1.59,1.73-1.66l.09-.04c.21-.15.44-.29.71-.43.31-.18.84-.27,1.56-.27.06,0,.34.05,1.54.31,1.49.33,1.59.33,1.65.33.09,0,.2-.02.36-.06.06-.01.13-.02.2-.03.02.14.04.39.04.83v.28c0,.78.05,1.33.16,1.69l.23.62c.07.18.1.28.11.33-.4.44-.57,1.14-.5,2.08"/>
  <path class="st1" d="M124.1,35.72c.03-.09.04-.18.04-.28,0-.6-.51-1.08-1.52-1.44-.7-.26-1.31-.39-1.82-.39-.11,0-.26.04-.64.31-.11.07-.19.13-.25.18-.03-.05-.06-.12-.11-.21-.16-.32-.37-.38-.51-.38-.48,0-1.1.21-1.89.63l-.26-.28-.19.18c-.86.82-1.33,1.21-1.58,1.4l-.09-5.37c.04-.33-.05-.87-.3-1.64,0-.06.03-.14.08-.22.09-.16.14-.28.16-.36v-.06c.1-1.65.18-2.91.25-3.75l.03-.28h-.28c-.14,0-.31.04-.55.14,0-.03-.01-.07-.01-.12,0,0,0-.18.59-.6l.11-.08v-.13c0-.28.02-.81.06-1.55.05-.78.06-1.04.06-1.1,0-.35-.06-.61-.17-.82l-.07-.13h-.68c-.11,0-.26.04-1.06.55-.55.36-.92.62-1.12.82l-.19.18.19.19c.36.36.54.86.54,1.52v3c0,.14.05.29.16.49.08.15.09.2.09.21.04.67.04,1.6,0,2.76-.07,1.01-.07,1.74,0,2.24v.08s.07.06.07.06c.31.33.38.52.4.6-.03.04-.12.13-.36.31l-.11.08v4.16c0,.19.08.36.23.48.01,0,.02.02.03.03v.54l.05-.05c-.21,1.3-.32,2.68-.32,4.13,0,1.03.07,1.9.2,2.59-.05.13-.12.37-.25.91-.19.8-.21,1.05-.21,1.17,0,.2.08.47.25.82l.13.28.26-.18c.52-.37,1-.65,1.43-.83.38-.16.54-.27.59-.44.02-.06.04-.14.04-1.34,0-1.75-.18-2.93-.56-3.61.18-.3.27-.77.29-1.44.05-1.36.07-1.74.09-1.84.39-.76.9-1.3,1.51-1.58.51-.21,1.24-.32,2.19-.32,2.18,0,3.28.46,3.28,1.38v4.91c0,.35-.09,1.09-.27,2.21-.22,1.39-.34,1.84-.4,1.98l-.08.17.14.13c.24.23.43.4.57.5l.07.05h.09c.09,0,.09,0,1.18-.61.78-.4.93-.6.93-.81v-6.62c0-.24.05-.62.14-1.15.13-.74.15-.92.15-1,0-.51-.26-.97-.78-1.36"/>
  <path class="st1" d="M138.47,44.03c0-.11.02-.46.07-1.06.05-.61.07-1.09.07-1.43,0-.46-.04-1.04-.3-1.32.11-.27.16-.61.16-1.03,0-.7-.14-1.55-.43-2.52-.24-.85-.48-1.44-.73-1.82l-.2-.29-.22.27c-.14.17-.29.15-.31.12,0,0-.02-.04-.03-.1.16-.19.22-.3.22-.41v-.18l-.18-.06c-1.4-.47-2.4-.7-3.07-.7-.92,0-2.11.24-3.52.73-1.49.51-2.32.98-2.61,1.48l-.11.19.17.14c.7.6,1.26.89,1.71.89h.08l.07-.05c.94-.67,1.9-1.36,2.85-2.07h0c.15.29.37.33.48.33s.23-.02.37-.07c.1-.03.16-.04.2-.04.62,0,1.13.11,1.5.32.44.46.59.71.64.85.04.09.13.18.49.4.12.06.15.11.15.1.12.56.19.95.22,1.17.02.16,0,.24,0,.26-.04.12-.06.23-.06.36,0,.28-.1.28-.21.28-1.14,0-2.82.37-5.01,1.1-3.2,1.06-4.83,2.48-4.83,4.23,0,1.12.61,2,1.81,2.61.81.43,1.63.64,2.45.64.06,0,.19,0,.65-.05.12-.01.5-.05.6-.05.23,0,.95-.14,4.53-1.27,0,.03,0,.07-.01.12-.09.61-.08.82-.06.93l.04.24.25-.03c.15-.02.46-.09,1.31-.54.87-.42,1.28-.81,1.28-1.22,0-.1-.03-.27-.26-.84-.2-.5-.22-.61-.22-.62M134.84,44.94c-1.2.68-1.79.82-2.08.82-.27,0-.58.03-.96.1-.47.09-.55.1-.55.1-.05,0-.39-.05-1.97-1.08l-.18-.11-.06.06c.07-.2.09-.28.09-.34,0-.09-.02-.25-.17-.85-.1-.4-.17-.69-.22-.87,1.83-1.63,3.53-2.45,5.06-2.45.32.07.99.15,2.39.31.21,1.26.31,2.12.31,2.56,0,.55-.56,1.14-1.66,1.75"/>
  <path class="st1" d="M155.14,34.09c-.33.32-.5.56-.56.8l-.5,3.42c-.21,1.42-.59,2.79-1.14,4.06l-.02.05v.06s.01.25.03.7c0,.05.01.13-.1.23-.54-1.44-1.08-2.87-1.62-4.26-.58-1.61-.97-3.27-1.15-4.92v-.09s-.07-.06-.07-.06c-.3-.3-.65-.45-1.03-.45s-.91.2-1.61.62l-.13.07v.15c0,1.49.12,2.3.4,2.62-.37.68-.73,1.84-1.09,3.53-.37,1.63-.7,2.47-.96,2.9-.19-.37-.48-1.07-.9-2.38-.46-1.39-.77-2.55-.93-3.45v-.08s-.07-.06-.07-.06c-.05-.05-.09-.08-.52-.24-.16-.06-.29-.12-.36-.21.04-.27.08-.48.13-.62l.03-.07-.02-.07c-.53-2.35-.93-2.83-1.35-2.83-.18,0-.44.09-1.17.69-.71.59-.85.83-.85,1.04,0,.1,0,.23,1.22,2.74,1,2.04,1.44,2.72,1.68,3-.03.31.07.93.6,2.49.42,1.27.9,2.5,1.43,3.65l.11.24.24-.12c.76-.38,1.33-.73,1.72-1.06l.07-.06.02-.09c.63-2.78,1.29-5.09,1.98-6.89.08.28.14.52.18.71v.05s.04.05.04.05c.08.11.23.26.49.48.2.17.25.24.25.23,0,.02,0,.03,0,.04l-.38-.04.11.37c.75,2.69,1.23,3.48,1.62,3.68,0,0-.01.02-.02.02l-.12.12.07.16c.13.3.27.6.42.86.24.48.51.87.79,1.18l.14.16.18-.11c.93-.56,1.62-1.8,2.13-3.78.36-1.57.71-3.15,1.06-4.7.23-.58.45-1.2.66-1.81.52-1.48.58-1.91.58-2.1v-1.11h-.92c-.19,0-.41.14-.76.49"/>
  <path class="st1" d="M170.58,43.06h-.66l-.08.09c-.38.41-.77.83-1.16,1.26-.36.4-.73.64-1.1.75-1.39.4-2.43.61-3.07.61s-1.39-.42-2.24-1.25c-1.09-1.03-1.53-1.43-1.73-1.6.07-.91-.2-1.78-.78-2.59.19-.37.33-.66.4-.9.19-.04.68-.13,1.96-.31,1.26-.17,2.05-.25,2.35-.25.11,0,1.38.08,1.81.11,1.51.1,1.8.11,1.87.11.04,0,.08,0,.95-.12.55-.08.95-.12,1.19-.12h.3l-.05-.3c-.11-.72-.47-1.55-1.08-2.46-.6-.91-1.27-1.61-1.99-2.09l-.28-.19-.11.32s0,.03-.02.04c-.36-.55-.85-.68-1.21-.68-1.56,0-3.28.76-5.1,2.25-2,1.66-3.02,3.47-3.02,5.36,0,.34.06.8.2,1.43.12.47.16.86.12,1.17v.1s.05.08.05.08c1.55,2.11,3.41,3.18,5.52,3.18h2.07c.85,0,1.85-.26,3-.78,1.52-.68,2.29-1.53,2.29-2.53,0-.21-.11-.42-.33-.63l-.07-.07ZM162.05,36.34c.36-.21.88-.46,1.55-.74.84-.32,1.07-.36,1.13-.36.71,0,1.2.11,1.44.32l1.19,1.36v.17c-.23.02-.53.08-.9.17-.64.15-.77.17-.78.18,0,0-.04-.01-.13-.1-.17-.17-.33-.25-.48-.25-.08,0-.21.01-.54.14-.28.1-.36.1-.37.1-.42,0-1.31-.07-2.66-.22.21-.28.39-.54.54-.77"/>
  <path class="st1" d="M184.65,43.06h-.66l-1.24,1.35c-.36.4-.73.64-1.1.75-1.4.4-2.43.61-3.07.61s-1.39-.42-2.24-1.25c-1.08-1.03-1.53-1.43-1.73-1.6.06-.91-.2-1.78-.78-2.59.19-.37.33-.66.4-.9.19-.04.68-.13,1.96-.31,1.26-.17,2.05-.25,2.35-.25.07,0,.68.04,1.81.11,1.22.08,1.76.11,1.87.11.03,0,.08,0,.95-.12.55-.08.95-.12,1.19-.12h.3l-.05-.3c-.11-.72-.47-1.55-1.08-2.46-.6-.91-1.27-1.61-1.99-2.09l-.28-.19-.11.32s0,.03-.01.04c-.37-.55-.85-.68-1.22-.68-1.56,0-3.28.76-5.1,2.25-2,1.66-3.02,3.47-3.02,5.36,0,.34.06.8.19,1.43.12.47.16.86.12,1.17v.1s.05.08.05.08c1.55,2.11,3.41,3.18,5.52,3.18h2.07c.85,0,1.86-.26,3-.78,1.52-.68,2.29-1.53,2.29-2.53,0-.21-.11-.42-.33-.63l-.07-.07ZM176.13,36.34c.36-.21.88-.46,1.54-.74.84-.32,1.07-.36,1.13-.36.71,0,1.2.11,1.44.32l1.19,1.36v.17c-.23.02-.53.08-.9.17-.64.15-.77.17-.77.18,0,0-.04-.01-.13-.1-.17-.17-.33-.25-.48-.25-.08,0-.21.01-.54.14-.28.1-.36.1-.37.1-.42,0-1.31-.07-2.66-.22.21-.28.39-.54.55-.77"/>
  <path class="st1" d="M209.07,29.69l-.06-.04c-.48-.35-1.21-.74-2.19-1.16-1.2-.53-1.5-.6-1.64-.6-.15,0-.28.07-.36.19-.2-.07-.52-.16-1.03-.3-.87-.24-2.01-.36-3.39-.36-.21,0-.52.04-.92.13-.51.11-.61.12-.62.12-.03,0-.19,0-1.1-.12-1.01-.13-1.13-.13-1.16-.13-.22,0-.67.1-2.23.94l-.14.07v.86l.17.06c.29.1.53.21.7.32-.1.49-.11.96-.03,1.4l.02.09.07.06c.12.1.18.22.19.38-.02.13-.04.32-.06.61-.04.69-.01,1.77.09,3.21.1,1.61.14,2.55.14,2.78,0,.12-.11,1.75-.61,8.9l-.03.42.39-.16c1.2-.49,1.99-.86,2.43-1.14l.12-.08v-.14c0-.75-.14-2-.4-3.71.14-.35.2-.96.18-1.84v-2.11s.06-.15.63-.29c.7-.11,1.39-.23,2.05-.34,1-.05,2.3-.41,3.96-1.11,1.44-.61,2.45-1.14,3.09-1.64l.13-.1-.04-.16s-.01-.09,0-.12c.01-.01.06-.07.25-.09.51-.08.79-.42.79-.96,0-.07,0-.14-.02-.19.24-.08.47-.27.68-.55.32-.42.48-.86.48-1.3,0-.33-.17-.89-.52-1.7l-.03-.06ZM204.75,34.98c-.15.14-.7.43-2.75.93-1.84.44-2.33.5-2.46.5,0,0-.03,0-.06-.03-.12-.12-.25-.17-.36-.17l-1.42-.1c.17-.22.24-.38.24-.53,0-.88-.11-1.78-.32-2.66,0-.08,0-.23.08-.48.1-.28.14-.46.14-.58,0-.26-.12-.49-.35-.69.09-.24.19-.68.32-1.56.03-.26.15-.52.75-.52.04,0,.15,0,.41.04.23.03.38.05.48.05.08,0,.23-.02.68-.17.4-.13.51-.14.52-.14,1.13,0,2.36.18,3.65.54,1.92.53,2.9,1.32,2.9,2.34,0,.51-.43,1.47-2.44,3.22"/>
  <path class="st1" d="M218.65,33.85c-.16,0-.31.05-.46.15-.05.03-.08.04-.1.05-.04-.02-.09-.07-.2-.16-.23-.19-.47-.29-.72-.29-.14,0-.35.03-.66.09-.34.07-.48.08-.53.08-.08,0-.19-.01-.23-.07l-.14-.2-2.79,1.69c-.04-.13-.1-.34-.16-.69-.11-.79-.54-.91-.79-.91-.16,0-.41.08-1.19.65-.64.47-.92.82-.92,1.15,0,.06,0,.15.29,1.02.18.54.29.93.33,1.12.02.2-.02.5-.09.89-.09.52-.13.87-.13,1.07,0,.54.21.95.62,1.2-.16.27-.32.53-.48.8-.1.14-.14.35-.14.7,0,.2.04.5.11.9.09.46.1.67.1.77,0,.15-.03.27-.1.39h-.12v1.01l.08-.1c0,.07.02.14.02.21.03.49-.07.65-.12.7l-.09.1.21.97.25-.06c.33-.07.73-.19,1.21-.36.77-.32,1.13-.65,1.13-1.03,0-.11-.03-.26-.07-.44-.05-.19-.06-.26-.06-.28v-.37l-.28.1c.2-.33.29-.86.29-1.64,0-1.27-.09-2.25-.26-2.91-.11-.4-.17-.65-.24-.79.03-.45.15-1.04.39-1.74.24-.72.65-1.57,1.23-1.59.18.17.56.13,1.22-.26.37-.21.53-.27.6-.28.3.11.67.25,1.1.42.46.18.85.33,1.17.44l.09.02c.18,0,.43-.11,1.57-1.38l.12-.14-.09-.16c-.33-.58-.64-.85-.98-.85"/>
  <path class="st1" d="M223.2,33.6c-.1,0-.18,0-1.15.69-.94.64-1.16.92-1.25,1.09l-.1.2.18.13c.22.15.33.43.33.84,0,.41,0,.83,0,1.24v.25h.26s.06.01.09.03c-.09.34-.14.73-.14,1.18,0,.5.06,1.14.19,1.92.12.73.17,1.08.18,1.26-.17.19-.36.68-.59,2.03-.17,1.07-.25,1.75-.25,2.09,0,.44.27.7.73.7.16,0,.42-.09,1.23-.74.65-.52.95-.91.95-1.26,0-.1-.02-.4-.09-1.2-.08-.89-.09-1.11-.09-1.16v-5.3l-.26-.25c.36-.77.54-1.77.54-2.98,0-.48-.28-.77-.76-.77"/>
  <path class="st1" d="M223.86,25.97h-.11l-.08.08c-2.58,2.8-2.58,2.9-2.58,3.04,0,.22.06.41.18.56l.12.17.19-.09c.38-.17.99-.59,1.86-1.29,1.26-1.01,1.37-1.32,1.37-1.53,0-.6-.35-.95-.95-.95"/>
  <path class="st1" d="M238.42,38.16c.1-.4.15-.75.15-1.09,0-1.1-.39-1.98-1.16-2.63-.7-.56-1.57-.84-2.58-.84-.28,0-.8.1-1.61.3-.91.23-1.13.27-1.15.28-.1-.15-.25-.23-.42-.23-.37,0-.81.26-1.35.8-.29.3-.48.51-.62.64-.02-.16-.05-.39-.06-.73-.07-.88-.45-1.07-.76-1.07-.25,0-.6.17-1.13.54-.49.35-.81.64-.95.88l-.08.13.07.13c.64,1.14.69,1.44.69,1.48,0,.05-.06.29-.14.71-.1.48-.15,1.19-.15,2.12v.25s.26.01.26.01c0,0,.04,0,.15.06-.22.13-.3.22-.33.32v4c-.01.06-.03.28-.11,1.05-.06.62-.09.99-.09,1.1,0,.24.05.42.16.55.09.11.26.24.59.22h.06s.06-.04.06-.04c.71-.44,1.26-.74,1.65-.9l.19-.07-.03-.2c-.04-.31-.12-.78-.26-1.48-.1-.56-.15-.89-.15-.98v-4.06c0-1.18.23-2.04.69-2.56.45-.51,1.27-.81,2.41-.87h.12s.07-.11.07-.11c.06-.08.18-.2.48-.2,1.15,0,1.95.13,2.4.38.65.36.97,1.1.97,2.26v3c0,.06-.02.22-.12.72-.08.41-.13.74-.13.99,0,.6.23.94.48,1.13l-.28.8c-.18.55-.26.94-.26,1.17,0,.32.14.63.41.93l.14.15.18-.1c1.41-.77,1.72-.96,1.83-1.05l.1-.08v-.13c0-.48-.09-1.99-.28-4.62-.13-2.4-.12-2.98-.1-3.09"/>
  <path class="st1" d="M247.82,34.37c-.86.22-1.2.27-1.35.27-.17,0-.61-.05-1.75-.3-.06-.34-.14-.56-.25-.72-.05-.07-.08-.14-.09-.21.07-.17.17-.5.34-1.12.25-.88.37-1.75.37-2.58,0-.19-.06-.47-.17-.84-.09-.32-.24-.69-.55-.75l-.14-.02-.1.1s-.19.16-1.14.74c-.53.32-.84.58-.97.82h-.07v.26h.25s-.14.05-.14.05l-.1.03s.04.16.26,1.07c.18.73.26,1.48.26,2.23,0,.28,0,.58-.02.91l-1.35.24c-.65.21-1.11.7-1.37,1.46l-.15.43.44-.09c.67-.13,1.2-.2,1.55-.2.27,0,.52.04.78.12,0,.22-.02.51-.04.87-.03.46-.05.84-.05,1.09v.23l.23.02c.06,0,.14.03.21.12-.28.33-.35.49-.35.62v3c0,.08-.03.57-.11,1.45-.05.6-.11,1.35-.11,1.49,0,.33.17.74.52,1.27.43.62.9.93,1.41.93.15,0,.3-.07.46-.21.07-.07.11-.08.11-.08.03,0,.08.02.13.05.14.09.26.13.37.13.23,0,.7-.08,2.19-.81,1.35-.71,2.05-1.37,2.15-2.03v-.06s-.22-.8-.22-.8l-.28.15c-.46.24-1.08.68-1.9,1.34-.4.33-.8.49-1.25.49-.19,0-.79,0-1.03-1.31l-.21-2.54h-.27l.08-.13c.15-.23.22-.59.22-1.14-.02-.48-.04-.79-.06-.98v-.07h0c-.04-.27-.1-.27-.25-.27l-.2.02v-.21c.34-.27.52-.71.52-1.32v-1.2h1.65s.15.03.68.16c.56.15.74.18.83.18.19,0,.46-.1,1.25-.88.59-.58.91-1.06.95-1.47l.03-.29h-1.05c-.05,0-.09,0-1.19.28M244.22,41.74s-.04.02-.06.02c-.02,0-.05.01-.09.02v-.02s.06-.06.08-.07l.07.05Z"/>
  <path class="st1" d="M263.31,43.06h-.66l-1.24,1.35c-.36.4-.73.64-1.1.75-1.39.4-2.43.61-3.07.61s-1.39-.42-2.24-1.25c-1.08-1.03-1.53-1.43-1.72-1.6.06-.91-.2-1.78-.78-2.59.19-.37.33-.66.41-.9.19-.04.67-.13,1.96-.31,1.57-.21,2.14-.25,2.35-.25.11,0,1.38.08,1.81.11,1.51.1,1.79.11,1.87.11.05,0,.15,0,.95-.12.55-.08.95-.12,1.19-.12h.3l-.05-.3c-.11-.72-.47-1.55-1.07-2.46-.6-.91-1.27-1.61-1.99-2.09l-.28-.19-.1.32s-.01.03-.02.04c-.36-.55-.85-.68-1.22-.68-1.56,0-3.28.76-5.09,2.25-2,1.66-3.01,3.47-3.01,5.37,0,.34.06.81.19,1.43.12.47.16.86.12,1.17v.1s.05.08.05.08c1.55,2.11,3.41,3.18,5.52,3.18h2.07c.85,0,1.86-.26,3-.78,1.52-.68,2.29-1.53,2.29-2.53,0-.21-.11-.42-.33-.63l-.07-.07ZM254.78,36.34c.36-.21.87-.46,1.54-.74.86-.33,1.09-.36,1.13-.36.71,0,1.2.11,1.44.32l1.19,1.36v.17c-.23.02-.53.08-.9.17-.64.15-.77.17-.77.18,0,0-.04-.01-.13-.1-.17-.17-.32-.25-.48-.25-.08,0-.22.01-.55.14-.28.1-.36.1-.37.1-.42,0-1.31-.07-2.65-.22.21-.28.39-.53.55-.77"/>
  <path class="st1" d="M274.06,33.85c-.16,0-.31.05-.46.15-.05.03-.08.04-.1.05-.03-.03-.1-.07-.2-.16-.23-.19-.47-.29-.72-.29-.14,0-.35.03-.66.09-.35.07-.48.08-.53.08-.08,0-.19-.01-.23-.07l-.14-.2-2.79,1.69c-.04-.13-.1-.34-.16-.69-.11-.79-.55-.91-.8-.91-.15,0-.41.08-1.19.65-.64.47-.92.82-.92,1.15,0,.08.02.2.29,1.02.18.54.29.93.33,1.12.02.2-.01.5-.09.89-.09.52-.13.87-.13,1.07,0,.54.21.95.62,1.2-.16.27-.32.53-.48.8-.1.14-.14.36-.14.69,0,.2.04.49.11.9.09.46.1.68.1.77,0,.15-.03.28-.09.39h-.12v1.01l.08-.1c0,.06.02.14.02.22.02.48-.07.64-.12.7l-.09.1.21.97.26-.06c.32-.07.73-.19,1.21-.36.77-.32,1.13-.65,1.13-1.03,0-.11-.02-.26-.07-.44-.05-.19-.06-.26-.06-.28v-.37l-.28.1c.2-.33.29-.86.29-1.64,0-1.26-.09-2.24-.27-2.91-.11-.41-.17-.65-.24-.79.03-.45.16-1.04.39-1.74.24-.72.65-1.57,1.23-1.59.18.17.56.13,1.22-.26.37-.21.53-.27.6-.28.3.11.67.25,1.1.42.46.18.85.33,1.17.44l.09.02c.18,0,.43-.11,1.57-1.38l.12-.14-.09-.16c-.33-.58-.64-.85-.98-.85"/>
  <path class="st1" d="M284.28,38.46c-.16,0-.26.05-.32.1-.03,0-.13-.03-.4-.16-.39-.18-.54-.2-.63-.2-.8,0-1.5.1-2.09.31-.32.12-.52.19-.65.24-1.35-1.08-1.49-1.37-1.5-1.4,0-.09.06-.39.68-1.09.6-.69.88-.76.98-.76.04,0,.06,0,.06.01.09.06.21.09.35.09.47,0,.95-.09,1.43-.27.29.41.74.61,1.36.61.36,0,.79-.13,1.33-.4.54-.27.92-.62,1.14-1.03l.08-.16-.12-.13c-.36-.4-.72-.6-1.07-.6-.08,0-.22.02-.61.14-.34.1-.42.11-.42.12-.02,0-.15-.02-.67-.2-.62-.21-.76-.23-.84-.23-.9,0-2.04.49-3.5,1.51-1.68,1.18-2.53,2.4-2.53,3.62,0,.74.49,1.36,1.46,1.86.73.38,1.43.58,2.07.58.1,0,.24-.02.79-.3.19-.09.33-.17.44-.24.19.29.49.43.89.43h0c.1,0,.19,0,.28,0,.43,0,.53.06.53.06l.09.06.72-.11c.1.06.28.2.54.59.24.36.37.69.37.98,0,1.17-.46,2.06-1.4,2.71-.75.51-1.57.77-2.44.77-.4,0-.92-.18-1.57-.54-.56-.32-.94-.62-1.17-.9,0-.01-.11-.13-.22-.73-.1-.46-.28-.76-.53-.91l-.12-.07-.13.07c-.96.51-1.43,1.02-1.43,1.56,0,.78.58,1.51,1.74,2.17.99.52,1.79.78,2.45.78.13,0,.41-.02.86-.06.43-.04.76-.05,1-.05.29,0,.94-.12,3.16-1.19l.06-.03.04-.06c.59-.85,1.04-1.52,1.35-1.99.61-.32.93-.87.93-1.6s-.21-1.53-.63-2.33c-.55-1.07-1.28-1.61-2.18-1.61"/>
  <path class="st1" d="M319.42,34.02c.28-.37.42-.75.42-1.14,0-.29-.15-.77-.46-1.49l-.02-.05-.05-.04c-.42-.31-1.06-.65-1.92-1.01-1.05-.46-1.32-.53-1.44-.53-.13,0-.25.06-.31.17-.18-.06-.46-.14-.91-.26-.76-.21-1.75-.31-2.96-.31-.18,0-.46.04-.8.12-.44.09-.53.1-.54.1-.02,0-.16,0-.96-.11-.89-.11-.99-.11-1.02-.11-.18,0-.57.08-1.95.82l-.12.06v.75l.15.05c.25.09.46.18.62.28-.09.43-.1.84-.03,1.22l.02.08.06.05c.1.08.15.19.16.33-.02.11-.03.28-.05.53-.04.62-.01,1.56.08,2.81.09,1.46.13,2.24.13,2.44,0,.17-.29,4.26-.54,7.79l-.02.37.34-.14c1.04-.43,1.74-.76,2.13-1l.1-.07v-.12c0-.67-.11-1.73-.35-3.25.12-.31.17-.84.16-1.61v-1.85s.05-.13.55-.25l1.8-.3c.88-.04,2.01-.36,3.47-.97,1.26-.53,2.15-1,2.7-1.43l.11-.09-.03-.14s-.01-.08,0-.11c.01-.01.05-.06.22-.08.44-.07.69-.37.69-.84,0-.06,0-.12-.02-.17.21-.07.41-.23.6-.48M315.57,35.96c-.13.12-.61.38-2.41.81-1.53.36-2.02.44-2.16.44,0,0-.02,0-.05-.03-.13-.12-.25-.15-.32-.15h0l-1.24-.09c.15-.19.21-.33.21-.46,0-.76-.09-1.55-.28-2.33-.01-.07,0-.2.08-.42.11-.31.12-.44.12-.51,0-.23-.1-.43-.31-.61.09-.27.19-.72.28-1.36.03-.23.13-.46.66-.46.04,0,.13,0,.36.04.2.03.33.04.41.04.08,0,.2-.02.6-.15.35-.12.44-.12.45-.12.99,0,2.06.16,3.2.47,1.69.46,2.54,1.15,2.54,2.05,0,.44-.37,1.29-2.13,2.82"/>
  <path class="st1" d="M329.69,34.78h-.32s-.08-.02-.16-.05c-.14-.05-.3-.07-.47-.07h-.06l-.05.03c-.69.37-1.18,1.26-1.51,2.73-.18,1.03-.36,2.05-.54,3.06-.31.27-.65.86-1.03,1.78-.33.79-.57,1.23-.74,1.48-.82-1.35-1.66-3.27-2.5-5.72-1.15-3.35-1.43-3.35-1.65-3.35-.13,0-.31.07-.82.43-.39.28-.65.49-.79.67l-.09.11.06.13c.93,1.9,1.59,3.58,1.97,5l.03.13.13.03c.44.12.49.32.49.47,0,.07-.01.12-.04.17l-.04.1.04.1c1.21,2.71,1.86,4.16,2.07,4.58l.11.24.22-.16c.38-.27.85-.59,1.45-.98l.06-.04.03-.07c1.51-3.77,2.86-7.3,4.02-10.49l.14-.31Z"/>
  <path class="st1" d="M336.47,35.43c-.75.19-1.05.23-1.18.23-.15,0-.53-.05-1.53-.26-.05-.29-.12-.5-.22-.62-.04-.06-.07-.12-.08-.19.07-.15.15-.44.3-.99.21-.77.32-1.53.32-2.26,0-.17-.05-.41-.15-.74-.09-.28-.21-.61-.48-.65l-.12-.02-.08.09s-.16.14-1,.65c-.47.28-.73.51-.84.72h-.06v.23h.22s-.12.05-.12.05l-.09.03s.04.12.23.94c.16.64.24,1.29.24,1.95,0,.25,0,.51-.02.8l-1.18.21c-.57.18-.97.61-1.2,1.28l-.13.37.38-.08c.59-.12,1.05-.17,1.36-.17.23,0,.46.03.68.11,0,.18-.02.44-.04.77-.03.4-.05.73-.05.96v.2l.2.02c.05,0,.12.02.18.1-.25.29-.3.43-.3.54v2.63c0,.08-.05.7-.1,1.27-.04.53-.1,1.19-.1,1.3,0,.29.15.65.46,1.11.37.54.79.82,1.23.82.13,0,.27-.06.4-.19.06-.06.1-.07.09-.07.03,0,.07.01.11.04.12.08.23.11.33.11.2,0,.61-.07,1.92-.71,1.18-.62,1.8-1.2,1.88-1.78v-.05s-.19-.7-.19-.7l-.25.13c-.4.21-.96.6-1.67,1.18-.34.29-.71.43-1.09.43-.17,0-.69,0-.91-1.16l-.18-2.2h-.23l.07-.11c.12-.2.18-.52.18-1-.02-.42-.03-.69-.05-.86v-.06s0,0,0,0c-.03-.24-.09-.24-.22-.24h-.17s0-.17,0-.17c.3-.23.45-.62.45-1.16v-1.05h1.44s.12.02.59.14c.52.14.66.16.73.16.16,0,.4-.09,1.09-.77.51-.51.79-.93.83-1.28l.03-.26h-.91s-.08,0-1.05.25M333.31,41.87s-.04.01-.05.02c-.02,0-.04.01-.08.02,0,0,0,0,0-.02.03-.03.06-.05.07-.07l.06.05Z"/>
  <path class="st1" d="M342.5,44.03c-.3-.2-.61-.39-.93-.57l-.16-.09-.12.13c-.44.47-.89.91-1.35,1.28l-.26.22.3.16c.59.32,1.15.81,1.66,1.45l.07.09h.41l.13.02.06-.13s.09-.12.55-.62c.34-.39.5-.69.5-.95,0-.27-.26-.57-.87-.99"/>
  <path class="st1" d="M348.83,29.76c-.09-.67-.57-1.38-1.41-2.1-.47-.43-1.17-.92-2.07-1.49l-.17-.1-.13.15c-.43.53-.47.66-.47.77,0,.24.08.44.24.62.05.05.08.08.09.11-.05.06-.17.18-.48.4l-.1.07v.12c0,.09.02.2.06.35.03.09.04.16.05.16v.85s.42-.71.42-.71c.06,0,.25.03.8.3.51.28.89.47,1.17.59v.2c0,.36.21.77.64,1.23.24.26.48.52.73.76.04.26.2.89.83,2.89.41,1.33.62,2.71.62,4.12,0,1.69-.39,3.3-1.16,4.83-.88,1.77-2.1,2.89-3.61,3.35-.33.09-.5.42-.5.97,0,.06,0,.16.09.4.04.11.05.17.06.19-.02.15.08.26.3.34.14.05.26.07.38.07h.09l.06-.06c1.57-1.48,2.72-2.62,3.45-3.38l1.43-3.36c.57-1.55.87-2.98.87-4.23s-.23-2.92-.67-4.8c-.49-2.13-1.01-3.28-1.63-3.58"/>
  <path class="st1" d="M370.47,44.77c-.06.07-.09.09-.1.11-.23-.31-.64-.22-1.3.19-.33.2-.47.27-.52.29-.05-.02-.2-.1-.55-.41l-.06-.06h-.09c-.2,0-.48.04-.84.12-.33.07-.63.1-.89.1-.33,0-.71-.04-1.11-.12h-.04c-.1,0-.23.05-.45.17-.17.1-.24.11-.24.11-.01,0-.08-.02-.32-.16-.26-.16-.42-.23-.54-.23-.11,0-.24.02-.41.05-.2.04-.26.05-.27.05-.61,0-.75-.23-.8-.39-.02-.08-.05-.4-.05-1.68,0-.14.04-.45.12-.92.09-.49.13-.85.13-1.08,0-.44-.12-.74-.36-.91l.18-.23v-.09c-.02-.76,0-2.26.05-4.59.08-3.01.12-4.8.12-5.47v-.23h-.2s-.05-.02-.08-.04c-.12-.06-.22-.09-.33-.09-.09,0-.14,0-2.06,1.04l-.24.13.18.21c.33.39.49.75.49,1.08v.44c-.01.23-.01.43,0,.61,0,.58.06,1.24.19,2v.05s.04.04.04.04c.21.31.25.48.26.57-.05.24-.08.48-.08.71s.04.49.12.73c.08.24.1.31.1.3,0,.05-.05.34-.17,1-.12.68-.18,1.26-.18,1.73,0,.39.04.72.12,1.01-.16.48-.26.83-.31,1.06l-.06.28h.29s.02,0,.07.04c-.05.22-.14.73-.34,1.96-.16.88-.43,1.49-.79,1.81l-.17.16.45.49h.12c.32-.05.77-.13,1.42-.25.68-.12.8-.14.81-.14.03,0,.18.01.73.11.58.1.72.12.78.12.49,0,.8-.05.85-.29.01-.04.03-.07.04-.1.42.24.73.36.95.36.06,0,.61.01,1.64.03h.66c1.47.04,2.24.06,2.32.06.84,0,1.59-.6,2.23-1.78l.19-.34h-1.24c-.15,0-.3.09-.45.28"/>
  <path class="st1" d="M378.09,35.43c-.74.19-1.05.23-1.18.23-.14,0-.53-.05-1.53-.26-.06-.29-.12-.5-.21-.62-.04-.06-.06-.12-.08-.19.07-.15.15-.44.3-.98.22-.77.33-1.53.33-2.26,0-.17-.05-.41-.15-.74-.08-.28-.21-.61-.48-.65l-.12-.02-.08.09s-.17.15-1,.65c-.46.28-.73.51-.84.72h-.06v.23h.22s-.13.05-.13.05l-.07.02s.05.18.23.94c.15.64.23,1.29.23,1.95,0,.25,0,.52-.02.8l-1.18.21c-.57.18-.97.61-1.2,1.28l-.12.37.39-.08c.59-.12,1.05-.17,1.36-.17.23,0,.46.03.68.11,0,.19-.02.44-.04.77-.03.42-.05.75-.05.96v.21l.2.02c.06,0,.12.02.18.1-.25.29-.3.43-.3.54v2.63c0,.08-.05.64-.1,1.27-.06.72-.1,1.2-.1,1.3,0,.29.15.65.45,1.11.38.54.79.82,1.23.82.13,0,.26-.06.4-.19.06-.06.09-.07.09-.07.03,0,.07.02.11.04.12.08.23.11.33.11.2,0,.62-.07,1.92-.71,1.18-.62,1.79-1.2,1.88-1.78v-.05s-.19-.7-.19-.7l-.25.13c-.4.21-.96.6-1.66,1.18-.35.29-.7.43-1.09.43-.17,0-.69,0-.9-1.14l-.18-2.22h-.23l.07-.11c.12-.2.19-.52.19-1-.02-.42-.03-.69-.05-.86v-.06h-.01c-.03-.24-.08-.24-.22-.24h-.17s0-.17,0-.17c.3-.24.45-.62.45-1.16v-1.05h1.44s.12.02.59.14c.55.14.67.16.73.16.19,0,.45-.13,1.1-.77.52-.51.79-.93.83-1.28l.03-.26h-.92s-.08,0-1.05.25M374.94,41.87s-.04.01-.05.02c-.02,0-.04.01-.08.02,0,0,0,0,0-.02.03-.03.06-.05.07-.06l.06.04Z"/>
  <path class="st1" d="M392.58,42.97c-.25-2-.38-4.15-.4-6.35.13-.08.21-.21.21-.37v-2.78c0-.15-.09-.31-.3-.53-.13-.14-.17-.21-.17-.21,0-.02.04-.08.12-.21.11-.15.15-.19.14-.19h0l.14-.05v-.15c.03-.22.06-.65.1-1.29.04-.6.05-.89.05-.97,0-.14-.06-.33-.2-.63-.16-.32-.16-.41-.16-.41,0-.02,0-.04.02-.06.05-.05.1-.09.13-.11l.09-.06v-.11c.2-2.8.29-4.44.29-5,0-.36-.09-.64-.28-.84l-.1-.11-1.3.48c-.86.36-1.21.62-1.21.92,0,.03,0,.06.18.99.12.58.17,1.05.17,1.4v.17l.17.05c.24.06.34.13.38.18-.23,1.37-.34,2.2-.34,2.53,0,.79.15,1.52.46,2.18-.02,0-.03,0-.04,0h-.23v3.79c.04.15.04.25.03.32h-.13s-.17-.11-.45-.31c-.37-.26-.8-.39-1.28-.39-.16,0-.3.07-.4.21-.27-.27-.49-.4-.69-.4-.36,0-.99.18-1.95.56l-.05.02-.04.04c-.25.28-.43.5-.55.66-.19-.13-.4-.19-.64-.19-.51,0-.99.41-1.46,1.25-.28.49-.47.92-.56,1.26l-.28.06c-.23.06-.39.16-.46.31-.36.55-.65,1.24-.88,2.03-.19.65-.28,1.13-.28,1.47,0,.66.28,1.56.87,2.76.11.23.31.46.6.66.45.31.76.38.94.23.03.03.07.08.12.16.19.28.34.4.51.4.13,0,.25-.06.32-.16.04.05.12.15.23.32l.04.07.08.02c.26.09.77.13,1.55.13,1.14,0,2.17-.09,3.05-.27.61-.14,1.15-.33,1.59-.56.13-.07.25-.12.33-.17,0,0,0,0,0,.01.04.19.08.36.11.53l.04.18h.73v-.23s0,0,0,0h0s.06.17.06.17v.04s.22-.06,1.22-.29l.18-.04v-.93s0-.11-.2-1.02c-.13-.58-.2-.97-.24-1.16M390.33,42.29c.09,1.2.05,1.66,0,1.83-.1.38-.52.68-1.24.89-.58.17-1.18.26-1.79.26-1.25,0-2.36-.39-3.3-1.15-1.04-.86-1.56-1.98-1.56-3.43,0-.25.17-.78.99-1.88.81-1.09,1.27-1.39,1.51-1.45l.07-.03c.19-.13.39-.25.62-.38.27-.16.74-.24,1.37-.24.04,0,.26.04,1.35.27,1.3.29,1.39.29,1.44.29.07,0,.18-.02.31-.05.05-.01.11-.02.17-.03.02.12.03.34.03.72v.24c0,.69.04,1.17.14,1.48l.2.54c.06.16.09.25.1.29-.35.39-.5.99-.44,1.82"/>
  <path class="st1" d="M397.93,44.03c-.29-.2-.6-.39-.92-.57l-.16-.09-.12.13c-.44.48-.9.91-1.35,1.28l-.26.22.3.16c.59.32,1.15.81,1.66,1.45l.07.09h.41l.14.02.06-.14s.14-.17.55-.62c.34-.39.49-.69.49-.95,0-.27-.26-.57-.87-.99"/>
  <path class="st1" d="M300.76,28.7s.05-.06.1-.11c.16-.17.24-.38.24-.62,0-.13-.08-.29-.47-.77l-.13-.15-.17.1c-.91.56-1.6,1.06-2.07,1.49-.84.72-1.32,1.42-1.42,2.1-.62.3-1.14,1.45-1.63,3.58-.44,1.88-.67,3.5-.67,4.8s.3,2.68.87,4.24l1.38,3.29.05.07c.74.78,1.9,1.92,3.45,3.38l.07.06h.09c.12,0,.24-.02.38-.07.21-.08.31-.18.3-.33,0-.02.01-.07.05-.19.09-.24.1-.34.1-.4,0-.55-.17-.88-.49-.97-1.51-.46-2.72-1.58-3.61-3.35-.77-1.51-1.16-3.14-1.16-4.82,0-1.41.21-2.79.63-4.12.49-1.56.76-2.51.82-2.89.24-.24.49-.5.73-.76.43-.47.64-.87.64-1.23v-.2c.28-.12.68-.31,1.17-.58.52-.26.73-.3.81-.3l.41.73v-.84s.02-.08.05-.19c.04-.15.06-.26.06-.35v-.12l-.1-.07c-.33-.22-.45-.35-.49-.39"/>
  <path class="st0" d="M36.58,34.57c-4.77,7.79-7.48,12.3-7.48,12.3h22.34v-19.76c-4.27,4.94-14.85,7.46-14.85,7.46"/>
  <path class="st0" d="M47.5,13.89h-4.1c-1,9.25-5.04,17.51-5.04,17.51,12.52-1.66,15.07-8.7,15.07-8.7,3.65-7.09-5.93-8.81-5.93-8.81"/>
  <path class="st0" d="M39.35,13.95s-2.99,16.17-23,32.28v.7h7.6s16.68-16.97,17.29-32.92l-1.89-.06Z"/>
  <path class="st0" d="M36.9,13.92c-4.29,9.43-20.5,18.05-20.5,18.05v10.37c20.75-16.94,20.5-28.42,20.5-28.42"/>
  <path class="st0" d="M35.35,13.84h-9.1c-2.35,9.33-9.84,15.91-9.84,15.91v.62c13.49-7.12,18.95-16.54,18.95-16.54"/>
  <path class="st0" d="M24.28,13.95s-3.55,5.67-7.88,7.26v7.26s5.75-6.95,8.35-14.52h-.47Z"/>
  <path class="st0" d="M23.4,13.95h-7v6.36c4.17-1.79,7-6.36,7-6.36"/>
</svg>